<mxfile host="app.diagrams.net" agent="Mozilla/5.0 (Windows NT 10.0; Win64; x64) AppleWebKit/537.36 (KHTML, like Gecko) Chrome/129.0.0.0 Safari/537.36" version="24.7.17">
  <diagram name="Страница — 1" id="P_XfkleDNaQZkz1SzDMk">
    <mxGraphModel grid="1" page="1" gridSize="10" guides="1" tooltips="1" connect="1" arrows="1" fold="1" pageScale="1" pageWidth="827" pageHeight="1169" math="0" shadow="0">
      <root>
        <mxCell id="0" />
        <mxCell id="1" parent="0" />
        <mxCell id="GgMc9mQzMnnJjQzRnGQE-14" style="edgeStyle=orthogonalEdgeStyle;rounded=0;orthogonalLoop=1;jettySize=auto;html=1;exitX=0.5;exitY=1;exitDx=0;exitDy=0;entryX=0.5;entryY=0;entryDx=0;entryDy=0;" edge="1" parent="1" source="GgMc9mQzMnnJjQzRnGQE-1" target="GgMc9mQzMnnJjQzRnGQE-3">
          <mxGeometry relative="1" as="geometry" />
        </mxCell>
        <mxCell id="GgMc9mQzMnnJjQzRnGQE-1" value="Копирование назв кампании и поиск ее в кабинете" style="ellipse;whiteSpace=wrap;html=1;" vertex="1" parent="1">
          <mxGeometry x="340" y="20" width="120" height="80" as="geometry" />
        </mxCell>
        <mxCell id="GgMc9mQzMnnJjQzRnGQE-2" value="Нажатие кнопки оптимизации в проге по кампании" style="ellipse;whiteSpace=wrap;html=1;" vertex="1" parent="1">
          <mxGeometry x="354" y="940" width="120" height="80" as="geometry" />
        </mxCell>
        <mxCell id="GgMc9mQzMnnJjQzRnGQE-5" style="edgeStyle=orthogonalEdgeStyle;rounded=0;orthogonalLoop=1;jettySize=auto;html=1;exitX=0;exitY=0.5;exitDx=0;exitDy=0;entryX=0.5;entryY=0;entryDx=0;entryDy=0;" edge="1" parent="1" source="GgMc9mQzMnnJjQzRnGQE-3" target="GgMc9mQzMnnJjQzRnGQE-4">
          <mxGeometry relative="1" as="geometry" />
        </mxCell>
        <mxCell id="GgMc9mQzMnnJjQzRnGQE-8" style="edgeStyle=orthogonalEdgeStyle;rounded=0;orthogonalLoop=1;jettySize=auto;html=1;exitX=1;exitY=0.5;exitDx=0;exitDy=0;entryX=0.5;entryY=0;entryDx=0;entryDy=0;" edge="1" parent="1" source="GgMc9mQzMnnJjQzRnGQE-3" target="GgMc9mQzMnnJjQzRnGQE-7">
          <mxGeometry relative="1" as="geometry" />
        </mxCell>
        <mxCell id="GgMc9mQzMnnJjQzRnGQE-3" value="Просмотр акоса за 7 дней и за 30 дней" style="rounded=0;whiteSpace=wrap;html=1;" vertex="1" parent="1">
          <mxGeometry x="340" y="130" width="120" height="60" as="geometry" />
        </mxCell>
        <mxCell id="GgMc9mQzMnnJjQzRnGQE-42" style="edgeStyle=orthogonalEdgeStyle;rounded=0;orthogonalLoop=1;jettySize=auto;html=1;exitX=0.5;exitY=1;exitDx=0;exitDy=0;entryX=0.5;entryY=0;entryDx=0;entryDy=0;" edge="1" parent="1" source="GgMc9mQzMnnJjQzRnGQE-4" target="GgMc9mQzMnnJjQzRnGQE-36">
          <mxGeometry relative="1" as="geometry" />
        </mxCell>
        <mxCell id="GgMc9mQzMnnJjQzRnGQE-4" value="Хороший акос за 30 дней, плохой за 7 дней" style="rounded=0;whiteSpace=wrap;html=1;" vertex="1" parent="1">
          <mxGeometry x="180" y="220" width="120" height="60" as="geometry" />
        </mxCell>
        <mxCell id="GgMc9mQzMnnJjQzRnGQE-13" style="edgeStyle=orthogonalEdgeStyle;rounded=0;orthogonalLoop=1;jettySize=auto;html=1;exitX=0;exitY=0.5;exitDx=0;exitDy=0;entryX=0.5;entryY=0;entryDx=0;entryDy=0;" edge="1" parent="1" source="GgMc9mQzMnnJjQzRnGQE-6" target="GgMc9mQzMnnJjQzRnGQE-10">
          <mxGeometry relative="1" as="geometry" />
        </mxCell>
        <mxCell id="GgMc9mQzMnnJjQzRnGQE-15" style="edgeStyle=orthogonalEdgeStyle;rounded=0;orthogonalLoop=1;jettySize=auto;html=1;exitX=1;exitY=0.5;exitDx=0;exitDy=0;entryX=0.5;entryY=0;entryDx=0;entryDy=0;" edge="1" parent="1" source="GgMc9mQzMnnJjQzRnGQE-6" target="GgMc9mQzMnnJjQzRnGQE-12">
          <mxGeometry relative="1" as="geometry" />
        </mxCell>
        <mxCell id="GgMc9mQzMnnJjQzRnGQE-32" style="edgeStyle=orthogonalEdgeStyle;rounded=0;orthogonalLoop=1;jettySize=auto;html=1;exitX=0.5;exitY=1;exitDx=0;exitDy=0;entryX=0.5;entryY=0;entryDx=0;entryDy=0;" edge="1" parent="1" source="GgMc9mQzMnnJjQzRnGQE-6" target="GgMc9mQzMnnJjQzRnGQE-16">
          <mxGeometry relative="1" as="geometry" />
        </mxCell>
        <mxCell id="GgMc9mQzMnnJjQzRnGQE-6" value="Есть корректировка на плейсменты?" style="rounded=0;whiteSpace=wrap;html=1;" vertex="1" parent="1">
          <mxGeometry x="490" y="320" width="120" height="60" as="geometry" />
        </mxCell>
        <mxCell id="GgMc9mQzMnnJjQzRnGQE-9" style="edgeStyle=orthogonalEdgeStyle;rounded=0;orthogonalLoop=1;jettySize=auto;html=1;exitX=0.5;exitY=1;exitDx=0;exitDy=0;entryX=0.5;entryY=0;entryDx=0;entryDy=0;" edge="1" parent="1" source="GgMc9mQzMnnJjQzRnGQE-7" target="GgMc9mQzMnnJjQzRnGQE-6">
          <mxGeometry relative="1" as="geometry" />
        </mxCell>
        <mxCell id="GgMc9mQzMnnJjQzRnGQE-7" value="Плохой акос за 7 дней и за 30 дней" style="rounded=0;whiteSpace=wrap;html=1;" vertex="1" parent="1">
          <mxGeometry x="490" y="220" width="120" height="60" as="geometry" />
        </mxCell>
        <mxCell id="GgMc9mQzMnnJjQzRnGQE-25" style="edgeStyle=orthogonalEdgeStyle;rounded=0;orthogonalLoop=1;jettySize=auto;html=1;exitX=0.5;exitY=1;exitDx=0;exitDy=0;entryX=0.5;entryY=0;entryDx=0;entryDy=0;" edge="1" parent="1" source="GgMc9mQzMnnJjQzRnGQE-10" target="GgMc9mQzMnnJjQzRnGQE-2">
          <mxGeometry relative="1" as="geometry" />
        </mxCell>
        <mxCell id="GgMc9mQzMnnJjQzRnGQE-10" value="Отключение плохого плейсмента" style="rounded=0;whiteSpace=wrap;html=1;" vertex="1" parent="1">
          <mxGeometry x="360" y="410" width="120" height="60" as="geometry" />
        </mxCell>
        <mxCell id="GgMc9mQzMnnJjQzRnGQE-11" style="edgeStyle=orthogonalEdgeStyle;rounded=0;orthogonalLoop=1;jettySize=auto;html=1;exitX=0.5;exitY=1;exitDx=0;exitDy=0;" edge="1" parent="1" source="GgMc9mQzMnnJjQzRnGQE-10" target="GgMc9mQzMnnJjQzRnGQE-10">
          <mxGeometry relative="1" as="geometry" />
        </mxCell>
        <mxCell id="GgMc9mQzMnnJjQzRnGQE-26" style="edgeStyle=orthogonalEdgeStyle;rounded=0;orthogonalLoop=1;jettySize=auto;html=1;exitX=0.5;exitY=1;exitDx=0;exitDy=0;entryX=1;entryY=0.5;entryDx=0;entryDy=0;" edge="1" parent="1" source="GgMc9mQzMnnJjQzRnGQE-12" target="GgMc9mQzMnnJjQzRnGQE-2">
          <mxGeometry relative="1" as="geometry" />
        </mxCell>
        <mxCell id="GgMc9mQzMnnJjQzRnGQE-12" value="Провести корректировку плейсментов" style="rounded=0;whiteSpace=wrap;html=1;" vertex="1" parent="1">
          <mxGeometry x="620" y="410" width="120" height="60" as="geometry" />
        </mxCell>
        <mxCell id="GgMc9mQzMnnJjQzRnGQE-31" style="edgeStyle=orthogonalEdgeStyle;rounded=0;orthogonalLoop=1;jettySize=auto;html=1;exitX=0.5;exitY=1;exitDx=0;exitDy=0;entryX=0.5;entryY=0;entryDx=0;entryDy=0;" edge="1" parent="1" source="GgMc9mQzMnnJjQzRnGQE-16" target="GgMc9mQzMnnJjQzRnGQE-17">
          <mxGeometry relative="1" as="geometry" />
        </mxCell>
        <mxCell id="GgMc9mQzMnnJjQzRnGQE-16" value="Корректировка была, все плейсменты протестированы - все работают плохо" style="rounded=0;whiteSpace=wrap;html=1;" vertex="1" parent="1">
          <mxGeometry x="480" y="500" width="140" height="70" as="geometry" />
        </mxCell>
        <mxCell id="GgMc9mQzMnnJjQzRnGQE-30" style="edgeStyle=orthogonalEdgeStyle;rounded=0;orthogonalLoop=1;jettySize=auto;html=1;exitX=0.5;exitY=1;exitDx=0;exitDy=0;entryX=0.5;entryY=0;entryDx=0;entryDy=0;" edge="1" parent="1" source="GgMc9mQzMnnJjQzRnGQE-17" target="GgMc9mQzMnnJjQzRnGQE-20">
          <mxGeometry relative="1" as="geometry" />
        </mxCell>
        <mxCell id="GgMc9mQzMnnJjQzRnGQE-17" value="Включить кампанию" style="rounded=0;whiteSpace=wrap;html=1;" vertex="1" parent="1">
          <mxGeometry x="490" y="600" width="120" height="60" as="geometry" />
        </mxCell>
        <mxCell id="GgMc9mQzMnnJjQzRnGQE-29" style="edgeStyle=orthogonalEdgeStyle;rounded=0;orthogonalLoop=1;jettySize=auto;html=1;exitX=0.5;exitY=1;exitDx=0;exitDy=0;entryX=0.5;entryY=0;entryDx=0;entryDy=0;" edge="1" parent="1" source="GgMc9mQzMnnJjQzRnGQE-20" target="GgMc9mQzMnnJjQzRnGQE-28">
          <mxGeometry relative="1" as="geometry" />
        </mxCell>
        <mxCell id="GgMc9mQzMnnJjQzRnGQE-20" value="Нажать кнопку оптимизацию" style="rounded=0;whiteSpace=wrap;html=1;" vertex="1" parent="1">
          <mxGeometry x="490" y="700" width="120" height="60" as="geometry" />
        </mxCell>
        <mxCell id="GgMc9mQzMnnJjQzRnGQE-22" value="Да" style="text;html=1;align=center;verticalAlign=middle;whiteSpace=wrap;rounded=0;" vertex="1" parent="1">
          <mxGeometry x="440" y="320" width="60" height="30" as="geometry" />
        </mxCell>
        <mxCell id="GgMc9mQzMnnJjQzRnGQE-23" value="Нет" style="text;html=1;align=center;verticalAlign=middle;whiteSpace=wrap;rounded=0;" vertex="1" parent="1">
          <mxGeometry x="600" y="320" width="60" height="30" as="geometry" />
        </mxCell>
        <mxCell id="GgMc9mQzMnnJjQzRnGQE-28" value="Поставить кампанию снова на паузу" style="ellipse;whiteSpace=wrap;html=1;" vertex="1" parent="1">
          <mxGeometry x="485" y="780" width="130" height="80" as="geometry" />
        </mxCell>
        <mxCell id="GgMc9mQzMnnJjQzRnGQE-39" style="edgeStyle=orthogonalEdgeStyle;rounded=0;orthogonalLoop=1;jettySize=auto;html=1;exitX=0.5;exitY=1;exitDx=0;exitDy=0;entryX=0;entryY=0.5;entryDx=0;entryDy=0;" edge="1" parent="1" source="GgMc9mQzMnnJjQzRnGQE-33" target="GgMc9mQzMnnJjQzRnGQE-2">
          <mxGeometry relative="1" as="geometry" />
        </mxCell>
        <mxCell id="GgMc9mQzMnnJjQzRnGQE-33" value="Снижать бид или аджастмент" style="rounded=0;whiteSpace=wrap;html=1;" vertex="1" parent="1">
          <mxGeometry x="40" y="400" width="120" height="60" as="geometry" />
        </mxCell>
        <mxCell id="GgMc9mQzMnnJjQzRnGQE-38" style="edgeStyle=orthogonalEdgeStyle;rounded=0;orthogonalLoop=1;jettySize=auto;html=1;exitX=0;exitY=0.5;exitDx=0;exitDy=0;entryX=0.5;entryY=0;entryDx=0;entryDy=0;" edge="1" parent="1" source="GgMc9mQzMnnJjQzRnGQE-36" target="GgMc9mQzMnnJjQzRnGQE-33">
          <mxGeometry relative="1" as="geometry" />
        </mxCell>
        <mxCell id="GgMc9mQzMnnJjQzRnGQE-44" style="edgeStyle=orthogonalEdgeStyle;rounded=0;orthogonalLoop=1;jettySize=auto;html=1;exitX=1;exitY=0.5;exitDx=0;exitDy=0;" edge="1" parent="1" source="GgMc9mQzMnnJjQzRnGQE-36">
          <mxGeometry relative="1" as="geometry">
            <mxPoint x="320" y="520" as="targetPoint" />
          </mxGeometry>
        </mxCell>
        <mxCell id="GgMc9mQzMnnJjQzRnGQE-36" value="Есть корректировка на плейсменты?" style="rounded=0;whiteSpace=wrap;html=1;" vertex="1" parent="1">
          <mxGeometry x="180" y="310" width="120" height="60" as="geometry" />
        </mxCell>
        <mxCell id="GgMc9mQzMnnJjQzRnGQE-40" value="Да" style="text;html=1;align=center;verticalAlign=middle;whiteSpace=wrap;rounded=0;" vertex="1" parent="1">
          <mxGeometry x="130" y="310" width="60" height="30" as="geometry" />
        </mxCell>
        <mxCell id="GgMc9mQzMnnJjQzRnGQE-46" style="edgeStyle=orthogonalEdgeStyle;rounded=0;orthogonalLoop=1;jettySize=auto;html=1;exitX=0.5;exitY=1;exitDx=0;exitDy=0;entryX=0.5;entryY=0;entryDx=0;entryDy=0;" edge="1" parent="1" source="GgMc9mQzMnnJjQzRnGQE-45" target="GgMc9mQzMnnJjQzRnGQE-2">
          <mxGeometry relative="1" as="geometry" />
        </mxCell>
        <mxCell id="GgMc9mQzMnnJjQzRnGQE-45" value="Провести корректировку плейсментов" style="rounded=0;whiteSpace=wrap;html=1;" vertex="1" parent="1">
          <mxGeometry x="260" y="520" width="120" height="60" as="geometry" />
        </mxCell>
        <mxCell id="GgMc9mQzMnnJjQzRnGQE-47" value="Нет" style="text;html=1;align=center;verticalAlign=middle;whiteSpace=wrap;rounded=0;" vertex="1" parent="1">
          <mxGeometry x="290" y="310" width="60" height="30" as="geometry" />
        </mxCell>
      </root>
    </mxGraphModel>
  </diagram>
</mxfile>
